#!OML:ASF E:/inclinewalkrobotboard/Project1/Captureday1/Session1/subject1.ASF
:FULLY-SPECIFIED
:DEGREES
163
root 0 0 0 1.856907752166216 -10.852414897496015 0.8847896984376787
lowerback -0.21912204648972633 -1.6475247531808013 -2.7262228022910433
upperback -0.5726672968604942 -2.1637547436612317 1.7107345289612021
thorax -0.27605394950687345 -1.0622340901688045 3.245292076186851
lowerneck -24.650761679373453 -1.6523092915911763 -7.879038207087881
upperneck 28.029004494917437 0.2802192521359069 2.1373119157079006
head 13.524038588735257 -0.5777470194591724 2.3050107090710608
rclavicle -5.31891736084355E-15 1.0007844017988487E-15
rhumerus -32.91309670931354 -5.0606985527130535 -80.3722512113168
rradius 30.096745756525877
rwrist 20.02974854201245
rhand -17.389002628762885 8.80097930784779
rfingers 7.1250199999999335
rthumb 8.85703704901717 -21.013539040365902
lclavicle -1.7793904370154554E-15 7.449886414090072E-16
lhumerus -19.935242365096652 -3.703767949079537 90.80716728475294
lradius 64.75596707061797
lwrist 1.940656346263777
lhand -28.74050218794688 20.96108221537154
lfingers 7.125020000000024
lthumb -2.102191555732208 50.952478366439664
rfemur -26.075217616482206 -0.9769001633519885 20.367053997330668
rtibia 68.45265944626652
rfoot -4.926590856121949 -7.097649828263371
rtoes 4.660541337297515
lfemur -2.992556226694488 -3.5258773335166094 -28.379256372115236
ltibia 22.473364990290918
lfoot -16.59078277338671 0.2829607175953548
ltoes 7.592858782863585
164
root 0 0 0 1.9235216377930726 -10.907215693708206 0.9350486939322858
lowerback -0.3240828638859192 -1.7061146638977764 -2.776470316172167
upperback -0.5168267480034514 -2.241512228378654 1.7040856744739614
thorax -0.15745213124688884 -1.1050586661206758 3.2648500368681437
lowerneck -24.976832887876494 -1.701797254138555 -7.990014056285288
upperneck 27.60131670824967 0.2119374440776678 2.2822923173276632
head 13.416730547426273 -0.5701781663581381 2.3522736340330463
rclavicle -3.876341736711993E-15 8.87230048600469E-16
rhumerus -33.333402060441 -5.071703633578231 -79.78154922993009
rradius 29.66263337738097
rwrist 20.28691494613946
rhand -17.36599792390995 8.765908437889218
rfingers 7.125019999999938
rthumb 8.879348720075756 -21.034842976686893
lclavicle -2.0238938318479685E-15 5.81487285632605E-16
lhumerus -20.600995415080586 -5.515771162904779 91.25862952235676
lradius 65.23410008244856
lwrist 2.233908565846938
lhand -28.78202638357758 21.100832587061596
lfingers 7.125020000000023
lthumb -2.1505207225473866 51.106283366089606
rfemur -29.92165497290364 0.02890396647306659 18.57855149612851
rtibia 57.30498523923089
rfoot -5.503346326982669 -8.560496421925617
rtoes 1.1008948390633453
lfemur 3.2312801265002866 -3.239835225669821 -30.23822792222912
ltibia 20.956616226435237
lfoot -19.74259158463846 -0.2922999231336565
ltoes 3.546987452158124
165
root 0 0 0 1.9711580735238639 -10.957293971972812 0.9678166645072805
lowerback -0.39246264671588693 -1.7494252145104074 -2.8008359862086945
upperback -0.47637234642350923 -2.298752423490861 1.698466398138938
thorax -0.07408138709835677 -1.1364829760652677 3.2713136859683427
lowerneck -25.21635219146678 -1.7305566452361458 -8.048624362231875
upperneck 27.401600695037573 0.18098746462135862 2.3399327360408315
head 13.383628772856339 -0.5656429000139479 2.372161012799111
rclavicle -1.5061028821524364E-15 4.53773544271482E-16
rhumerus -33.582772198617526 -4.821424112823335 -79.31060261499691
rradius 29.324326198776753
rwrist 20.397193615160397
rhand -17.399868918458804 8.792318399326941
rfingers 7.125019999999938
rthumb 8.84627142715642 -20.99762665889333
lclavicle -6.1251164374857775E-16 5.860550677542874E-16
lhumerus -20.797363128608954 -6.762131522341785 91.34701554655837
lradius 65.74448275139169
lwrist 2.5656978556735885
lhand -28.73134877689277 21.44457720078135
lfingers 7.125020000000023
lthumb -2.106208826854547 51.4667658002665
rfemur -32.138390952820664 1.535757721075652 17.11479115466173
rtibia 45.62649850584266
rfoot -5.541573754632074 -10.30397820955981
rtoes -1.4922449396396908
lfemur 7.161176280839233 -3.0351211495887025 -31.00270047583502
ltibia 19.90851640037147
lfoot -20.62601622434358 -1.1090938862941018
ltoes 0.5368321038873702
166
root 0 0 0 2.0112800037717102 -10.991122944139583 1.0009610601363421
lowerback -0.43267697850145326 -1.784811057022744 -2.8162531904143937
upperback -0.44260648162084704 -2.3458355378972433 1.7099936635980155
thorax -0.012367454055184357 -1.1625292134586471 3.2907783773475305
lowerneck -25.5160870969761 -1.7613338329144277 -8.075219940716186
upperneck 27.072526589714293 0.1505579850589861 2.3925369323345067
head 13.317633063071598 -0.5594996033789883 2.3856364071773055
rclavicle 1.3902576043600516E-15 -4.3768779831655305E-16
rhumerus -33.78946946056866 -4.299506497740352 -78.78635090942308
rradius 28.963244442396356
rwrist 20.430174491255052
rhand -17.491100221391203 8.86927553125652
rfingers 7.125019999999936
rthumb 8.757713371123751 -20.912631472919422
lclavicle 1.286392721060999E-15 4.480728296296469E-16
lhumerus -20.805405019456984 -7.933836511033645 91.32287613891894
lradius 66.31689418443548
lwrist 2.9288147432197627
lhand -28.68137287648715 21.947277238568063
lfingers 7.125020000000023
lthumb -2.061773505867147 51.98596593394147
rfemur -32.87641424026064 3.3361816578739045 17.10747356765911
rtibia 33.48987663323973
rfoot -6.238041142432309 -12.227436809883136
rtoes -3.3042938453347466
lfemur 11.664627521464237 -3.029576986005148 -31.388083199869573
ltibia 19.569581456674122
lfoot -19.731491847095185 -2.5382268092733504
ltoes -2.796199997843411
167
root 0 0 0 2.018766657709642 -10.988959615400336 1.0386966969023494
lowerback -0.41705731844527305 -1.7966103231519264 -2.8148236160972897
upperback -0.4438645257536372 -2.3628527220325135 1.761837782855292
thorax -0.01813314534945265 -1.1714360395371533 3.343294738507696
lowerneck -25.99213498823943 -1.8126639327140839 -8.027015887465893
upperneck 26.326301299664966 0.1006029060236927 2.4562386763827844
head 13.140361733935368 -0.5548382073418578 2.386692070198842
rclavicle 3.4834319732384293E-15 -1.2622017117607273E-15
rhumerus -33.927212470070714 -3.582513001259078 -78.30057549416529
rradius 28.648287155051847
rwrist 20.400661023083767
rhand -17.62723594362196 8.965717772107132
rfingers 7.125019999999935
rthumb 8.626152316709097 -20.81765136010052
lclavicle 2.539588694077596E-15 4.552525828169774E-16
lhumerus -20.61766401800167 -8.998089092210984 91.21350915683291
lradius 66.85203498117212
lwrist 3.28871501866348
lhand -28.65904530026664 22.507099386448594
lfingers 7.125020000000021
lthumb -2.0441644260295053 52.559511004360324
rfemur -33.11534007403085 4.708031107170902 17.724614915969397
rtibia 24.722167858524642
rfoot -7.100268774340024 -13.348987920885198
rtoes -3.9573760796964246
lfemur 18.273735618007937 -3.392901402716599 -31.068045806111652
ltibia 20.305735907589142
lfoot -15.785455921700345 -5.350218838647561
ltoes -8.02088483640339
168
root 0 0 0 1.9944028649037708 -10.950187391569541 1.0750863692601111
lowerback -0.33250244824991126 -1.7862508199916411 -2.7884417229594805
upperback -0.47292245572783165 -2.3517447306829964 1.8601720073095245
thorax -0.09189984146894825 -1.1645268975901992 3.4308014279322876
lowerneck -26.61551371158629 -1.8652841968100804 -7.893336172709274
upperneck 25.182274285121625 0.05987175522144139 2.5056681152999642
head 12.853972833919878 -0.5421670678964555 2.368830453331363
rclavicle 3.866441315743885E-15 -1.784157010226125E-15
rhumerus -34.012248875025286 -2.8873144304959735 -77.92850800257469
rradius 28.432183416093803
rwrist 20.371538135527533
rhand -17.75598345003217 9.024985114268636
rfingers 7.125019999999936
rthumb 8.501930431504134 -20.76696530671148
lclavicle 2.870365787575818E-15 4.29733050403225E-16
lhumerus -20.357815240793112 -9.866785555891266 91.05173284604862
lradius 67.27659932792125
lwrist 3.6038083603688844
lhand -28.63384657536396 22.957016690793008
lfingers 7.125020000000017
lthumb -2.0226039212921263 53.01974776645731
rfemur -33.74325584360066 5.346687417346621 18.313261244778076
rtibia 20.553459613425893
rfoot -7.278481753687019 -13.222510005554621
rtoes -3.770502094268024
lfemur 22.10448336818725 -3.699863313080168 -29.18023720535655
ltibia 25.350023550702435
lfoot -9.952394516374202 -9.211788400089983
ltoes -14.073221980385924
